<svg viewBox="230 195 560 640" version="1.1" xmlns="http://www.w3.org/2000/svg" xmlns:xlink="http://www.w3.org/1999/xlink" xml:space="preserve" style="fill-rule:evenodd;clip-rule:evenodd;stroke-linejoin:round;stroke-miterlimit:2;">
    <g transform="matrix(2.40979,0,0,2.40979,-769.882,-715.787)">
        <path d="M647.389,449.816C647.389,445.77 644.518,440.779 641.019,438.73L538.318,379.045C534.819,376.996 529.076,376.996 525.578,379.045L483.181,403.686C479.683,405.735 479.683,409.045 483.181,411.094L640.967,502.775C644.465,504.824 647.337,503.143 647.337,499.097L647.389,449.816Z" style="fill:rgb(95,61,65);fill-rule:nonzero;"/>
        <path d="M416.506,569.184C416.506,573.23 419.378,578.221 422.876,580.27L525.578,639.954C529.076,642.003 534.819,642.003 538.317,639.954L581.393,614.946C584.891,612.897 584.891,609.587 581.393,607.538L422.876,515.437C419.378,513.388 416.506,515.069 416.506,519.115L416.506,569.184Z" style="fill:rgb(228,35,55);fill-rule:nonzero;"/>
        <path d="M641.019,580.218C644.517,578.169 647.389,573.177 647.389,569.132L647.389,529.307C647.389,525.262 644.517,520.271 641.019,518.221L469.919,418.818C466.421,416.769 460.678,416.769 457.179,418.818L422.876,438.73C419.378,440.779 416.506,445.77 416.506,449.816L416.506,488.852C416.506,492.898 419.378,497.889 422.876,499.938L594.655,599.762C598.153,601.811 603.896,601.811 607.394,599.762L641.019,580.218Z" style="fill:rgb(170,46,59);fill-rule:nonzero;"/>
    </g>
</svg>
